<?xml version="1.0" encoding="UTF-8" standalone="no" ?>
<!DOCTYPE svg PUBLIC "-//W3C//DTD SVG 1.1//EN" "http://www.w3.org/Graphics/SVG/1.1/DTD/svg11.dtd">
<svg xmlns="http://www.w3.org/2000/svg" xmlns:xlink="http://www.w3.org/1999/xlink" version="1.1" width="1440" height="3072" viewBox="0 0 1440 3072" xml:space="preserve">
<desc>Created with Fabric.js 4.6.0</desc>
<defs>
</defs>
<g transform="matrix(1.39 0 0 1.39 1100.4 540.44)" id="Jl49E6oNcZswHTIh6eFyi"  >
<path style="stroke: rgb(161,177,60); stroke-width: 0; stroke-dasharray: none; stroke-linecap: butt; stroke-dashoffset: 0; stroke-linejoin: miter; stroke-miterlimit: 4; fill: rgb(15,42,142); fill-rule: nonzero; opacity: 1;" vector-effect="non-scaling-stroke"  transform=" translate(0, 0)" d="M 0 -540.22492 C 298.20415 -540.22492 540.22492 -298.20416 540.22492 0 C 540.22492 298.20415 298.20416 540.22492 0 540.22492 C -298.20415 540.22492 -540.22492 298.20416 -540.22492 0 C -540.22492 -298.20415 -298.20416 -540.22492 0 -540.22492 z" stroke-linecap="round" />
</g>
<g transform="matrix(1.21 0 0 1.21 351.66 1067.75)" id="Xj8BHfpkmAEI9gpIaL7UB"  >
<path style="stroke: rgb(40,165,2); stroke-width: 0; stroke-dasharray: none; stroke-linecap: butt; stroke-dashoffset: 0; stroke-linejoin: miter; stroke-miterlimit: 4; fill: rgb(255,194,18); fill-rule: nonzero; opacity: 1;" vector-effect="non-scaling-stroke"  transform=" translate(0, 0)" d="M 0 -416.59978 C 229.96308 -416.59978 416.59978 -229.96308000000002 416.59978 0 C 416.59978 229.96308 229.96308000000002 416.59978 0 416.59978 C -229.96308 416.59978 -416.59978 229.96308000000002 -416.59978 0 C -416.59978 -229.96308 -229.96308000000002 -416.59978 0 -416.59978 z" stroke-linecap="round" />
</g>
</svg>